<svg width="70" height="40" viewBox="0 0 70 40" fill="none" xmlns="http://www.w3.org/2000/svg">
<rect width="70" height="40" rx="2" fill="#E20010"/>
<path d="M46.9539 6H10V27H46.9539V6Z" fill="#E20010"/>
<path d="M17.159 22.5148C16.7632 22.5148 16.476 22.3707 16.3026 22.0853C15.8705 21.3675 16.3156 20.4697 16.5251 20.12C16.67 19.8755 16.8874 19.6157 17.0918 19.4433C17.2962 19.2736 17.6092 19.0678 17.9378 19.0678H17.9637C18.3078 19.0781 18.6726 19.3147 18.6882 19.6954C18.7011 19.981 18.5096 20.179 18.3725 20.3258L18.3492 20.3514C18.238 20.4697 18.1267 20.5778 18.0206 20.6833C17.8317 20.8685 17.6532 21.0434 17.4799 21.2594C17.4799 21.2594 16.9986 21.9953 17.7904 21.7714C17.8343 21.756 17.8809 21.7354 17.9352 21.7148L17.9611 21.7045C18.15 21.6299 18.3285 21.527 18.4864 21.4344L18.5174 21.4164C18.8564 21.2234 19.2341 20.938 19.6481 20.5675C20.4554 19.8395 21.0375 19.0781 21.3765 18.3089C21.6249 17.7404 21.6662 17.123 21.4851 16.7294C21.3816 16.5056 21.2057 16.3616 20.9676 16.305C20.89 16.2844 20.8098 16.2792 20.7296 16.2792C20.5666 16.2792 20.3881 16.3127 20.1837 16.3873C19.3971 16.6754 18.6985 17.1693 18.0232 17.6452L17.9404 17.7044C17.8576 17.7635 17.7774 17.8201 17.692 17.8767C17.6636 17.8973 17.6325 17.9179 17.6041 17.941C17.128 18.2497 16.4346 18.6124 15.8007 18.6124C15.4902 18.6124 15.2263 18.525 15.0141 18.3501C14.7812 18.1546 14.6519 17.8922 14.6363 17.5732C14.6001 16.8169 15.1952 15.9242 15.7179 15.3918C15.943 15.1834 16.1862 14.9879 16.4372 14.8052C16.4734 14.7847 16.5044 14.7641 16.5329 14.7409C16.5717 14.7126 16.6079 14.6895 16.6442 14.6663L16.6493 14.6612L16.6881 14.6355C17.9249 13.7814 19.0918 13.3492 20.1578 13.3492C21.3221 13.3492 21.9379 13.8689 21.9948 13.9178C22.489 14.2856 22.8306 14.7744 23.0065 15.366C23.2445 16.1763 23.0505 17.0433 22.9108 17.4883C22.5692 18.5816 21.9741 19.4794 20.9832 20.3925C20.5356 20.8068 20.0983 21.1515 19.6533 21.4473L19.5394 21.5219C19.1177 21.8049 18.6804 22.0955 18.1293 22.304C17.7619 22.4454 17.4359 22.5148 17.159 22.5148Z" fill="white"/>
<path fill-rule="evenodd" clip-rule="evenodd" d="M35.4662 11.955C35.6707 12.1813 35.7794 12.4797 35.7742 12.791C35.7742 13.4521 35.2774 13.9692 34.6512 13.9692C34.0225 13.9692 33.5283 13.4496 33.5283 12.7833C33.5283 12.1299 34.038 11.6 34.6642 11.6C34.9721 11.6 35.2566 11.726 35.4662 11.955ZM33.7638 14.867L35.5309 14.5634V21.972H33.7638V14.867ZM32.4416 16.9918V20.9482C31.7378 21.6891 30.6977 22.1084 29.4687 22.1084C27.9422 22.1084 26.8477 20.9174 26.8477 19.5282C26.8762 18.0722 27.9215 17.1307 29.6033 17.1307H30.6512V16.7526C30.6512 16.1069 30.3873 15.7982 29.7482 15.7699C29.2203 15.7467 28.633 15.9217 28.0819 16.1815L27.8128 16.3153L27.3394 15.1988L27.5385 15.0933C28.3173 14.6843 29.0755 14.4322 29.9189 14.4322C31.1375 14.4322 32.4416 15.065 32.4416 16.9918ZM30.6485 18.3912H29.9396C29.0521 18.3912 28.7262 19.0215 28.7132 19.5745C28.7029 20.2434 29.0211 20.817 29.7301 20.817C30.1182 20.817 30.4727 20.7064 30.6485 20.5778V18.3912ZM50.4239 20.1713L50.9232 21.2517C50.9232 21.2517 50.3592 21.6839 49.596 21.9309C49.1975 22.062 48.7628 22.1264 48.3436 22.1264C47.5777 22.1264 46.918 21.8974 46.4394 21.4781C45.6579 20.7939 45.2284 19.5874 45.2413 18.3912C45.2569 16.5005 46.0668 14.4888 48.1418 14.4888C50.0022 14.4888 50.8507 15.685 50.8845 18.3115V18.4967H47.0784C47.0397 19.2864 47.1819 20.0298 47.4975 20.3925C47.7123 20.6343 48.0409 20.8016 48.5248 20.8016C49.5727 20.8016 50.3359 20.2434 50.4239 20.1713ZM47.1301 17.3288H49.0422C49.0422 16.7731 48.9257 15.8754 48.1418 15.8754C47.4458 15.8754 47.1611 16.6137 47.1301 17.3288ZM39.9812 14.4502C40.5168 14.4502 40.9774 14.5737 41.1689 14.674L40.6721 15.8548C40.6721 15.8548 40.3874 15.757 39.9502 15.775C39.4741 15.7956 38.9773 16.0066 38.7419 16.2484V21.9797H36.9411L36.9436 15.8908C38.0148 14.6895 39.205 14.4502 39.9812 14.4502ZM54.8975 20.8118V21.9797C54.8975 21.9797 54.5197 22.0543 54.2196 22.0543C52.812 22.0543 51.9686 21.3546 51.9686 19.7212V12.827L53.7409 12.5106V19.8421C53.7409 20.4079 53.8936 20.7476 54.6284 20.8068C54.7293 20.8145 54.8975 20.8118 54.8975 20.8118ZM43.4561 14.566H44.6204V15.9345H43.4561V19.8318C43.4561 20.3412 43.6061 20.7836 44.3669 20.8118C44.4677 20.8145 44.5998 20.8145 44.6204 20.817V21.9695C44.6204 21.9695 44.2944 22.0389 43.9477 22.0389C42.5065 22.0389 41.6475 21.3032 41.6475 19.7546V12.827L43.4561 12.5209V14.566Z" fill="white"/>
<path d="M27.713 28.2822C27.713 28.3552 27.6958 28.4044 27.6612 28.4302C27.631 28.4558 27.5858 28.4687 27.5254 28.4687C27.465 28.4687 27.4177 28.4558 27.3831 28.4302C27.3529 28.4044 27.3379 28.3552 27.3379 28.2822V25.3303C27.3379 25.2617 27.3529 25.2168 27.3831 25.1954C27.4177 25.1696 27.4608 25.1567 27.5125 25.1567C27.5685 25.1567 27.6139 25.1696 27.6483 25.1954C27.6828 25.2168 27.7001 25.2617 27.7001 25.3303V25.9155C27.726 25.8598 27.7626 25.7848 27.8101 25.6905C27.8574 25.5962 27.9243 25.5062 28.0105 25.4203C28.0967 25.3303 28.2067 25.2532 28.3404 25.1889C28.4785 25.1245 28.6466 25.0925 28.8449 25.0925C29.0778 25.0925 29.2806 25.1588 29.4531 25.2918C29.6255 25.4203 29.7376 25.6261 29.7894 25.9091C29.8153 25.8492 29.854 25.7741 29.9059 25.6841C29.9619 25.5897 30.0373 25.4997 30.1321 25.4139C30.2271 25.3239 30.3435 25.2488 30.4814 25.1889C30.6238 25.1245 30.792 25.0925 30.9861 25.0925C31.1283 25.0925 31.2598 25.116 31.3806 25.1632C31.5014 25.206 31.6049 25.2746 31.6911 25.369C31.7817 25.459 31.8528 25.5748 31.9046 25.7162C31.9563 25.8577 31.9821 26.0249 31.9821 26.2178V28.3144C31.9821 28.4173 31.924 28.4687 31.8076 28.4687C31.6738 28.4687 31.607 28.4173 31.607 28.3144V26.3593C31.607 26.0635 31.5531 25.8405 31.4453 25.6905C31.3418 25.5361 31.1671 25.459 30.9213 25.459C30.7316 25.459 30.5678 25.5018 30.4297 25.5876C30.296 25.6691 30.184 25.7783 30.0934 25.9155C30.0071 26.0485 29.9425 26.1986 29.8993 26.3658C29.8561 26.5329 29.8347 26.698 29.8347 26.8609V28.3144C29.8347 28.4173 29.7764 28.4687 29.6599 28.4687C29.5264 28.4687 29.4595 28.4173 29.4595 28.3144V26.3593C29.4595 26.0635 29.4056 25.8405 29.2977 25.6905C29.19 25.5361 29.0132 25.459 28.7674 25.459C28.582 25.459 28.4224 25.5018 28.2887 25.5876C28.155 25.6733 28.0451 25.7848 27.9588 25.922C27.8769 26.055 27.8143 26.2071 27.7712 26.3786C27.7324 26.5458 27.713 26.7109 27.713 26.8738V28.2822Z" fill="white"/>
<path d="M33.1673 26.8095C33.1673 27.2511 33.2665 27.592 33.4648 27.8319C33.6633 28.072 33.9478 28.1921 34.3188 28.1921C34.6939 28.1921 34.9807 28.072 35.179 27.8319C35.3773 27.592 35.4766 27.2511 35.4766 26.8095C35.4766 26.3721 35.3773 26.0335 35.179 25.7934C34.9807 25.5489 34.6939 25.4267 34.3188 25.4267C33.9478 25.4267 33.6633 25.5489 33.4648 25.7934C33.2665 26.0335 33.1673 26.3721 33.1673 26.8095ZM32.7598 26.8095C32.7598 26.5393 32.7964 26.2992 32.8697 26.0892C32.9474 25.8747 33.053 25.6947 33.1867 25.5489C33.3247 25.3989 33.4886 25.2853 33.6783 25.208C33.8724 25.1309 34.0859 25.0924 34.3188 25.0924C34.5516 25.0924 34.765 25.1309 34.9591 25.208C35.1532 25.2853 35.3169 25.3989 35.4506 25.5489C35.5887 25.6947 35.6943 25.8747 35.7676 26.0892C35.8453 26.2992 35.8841 26.5393 35.8841 26.8095C35.8841 27.0796 35.8453 27.3218 35.7676 27.5361C35.6943 27.7506 35.5887 27.9327 35.4506 28.0828C35.3169 28.2285 35.1532 28.34 34.9591 28.4173C34.765 28.4944 34.5516 28.533 34.3188 28.533C34.0859 28.533 33.8724 28.4944 33.6783 28.4173C33.4886 28.34 33.3247 28.2285 33.1867 28.0828C33.053 27.9327 32.9474 27.7506 32.8697 27.5361C32.7964 27.3218 32.7598 27.0796 32.7598 26.8095Z" fill="white"/>
<path d="M37.0372 28.2823C37.0372 28.3552 37.02 28.4045 36.9856 28.4303C36.9554 28.4559 36.91 28.4688 36.8497 28.4688C36.7894 28.4688 36.7419 28.4559 36.7073 28.4303C36.6771 28.4045 36.6621 28.3552 36.6621 28.2823V25.3304C36.6621 25.2618 36.6771 25.2168 36.7073 25.1954C36.7419 25.1697 36.785 25.1568 36.8367 25.1568C36.8929 25.1568 36.9381 25.1697 36.9726 25.1954C37.0071 25.2168 37.0243 25.2618 37.0243 25.3304V25.9156C37.0502 25.8599 37.0912 25.7848 37.1472 25.6906C37.2033 25.5962 37.2809 25.5062 37.3801 25.4204C37.4836 25.3304 37.6065 25.2532 37.7488 25.189C37.8954 25.1246 38.0679 25.0925 38.2663 25.0925C38.5983 25.0925 38.8656 25.1847 39.0684 25.369C39.2753 25.5491 39.3788 25.832 39.3788 26.2178V28.3145C39.3788 28.4174 39.3207 28.4688 39.2042 28.4688C39.0705 28.4688 39.0037 28.4174 39.0037 28.3145V26.3594C39.0037 26.0679 38.9433 25.8449 38.8225 25.6906C38.7061 25.5362 38.4948 25.459 38.1887 25.459C37.986 25.459 37.8113 25.5019 37.6648 25.5877C37.5181 25.6734 37.3974 25.7848 37.3024 25.922C37.212 26.055 37.1451 26.2072 37.102 26.3787C37.0589 26.5459 37.0372 26.7109 37.0372 26.8739V28.2823Z" fill="white"/>
<path d="M41.6763 25.4204C41.4995 25.4204 41.3443 25.4505 41.2106 25.5104C41.0769 25.5705 40.9648 25.652 40.8742 25.7549C40.7836 25.8578 40.7126 25.9777 40.6607 26.1149C40.6091 26.2521 40.5768 26.3958 40.5638 26.5459H42.763C42.7501 26.3958 42.7178 26.2544 42.6661 26.1214C42.6186 25.9842 42.5497 25.8642 42.4591 25.7613C42.3728 25.6584 42.265 25.5769 42.1356 25.5169C42.0063 25.4526 41.8532 25.4204 41.6763 25.4204ZM43.1383 26.6938C43.1383 26.7496 43.121 26.7903 43.0864 26.8161C43.0563 26.8375 43.0152 26.8481 42.9636 26.8481H40.5508C40.5595 27.2769 40.6607 27.6092 40.8548 27.8449C41.0532 28.0808 41.3356 28.1987 41.7022 28.1987C41.8488 28.1987 41.9717 28.1837 42.0709 28.1536C42.1744 28.1193 42.2606 28.0786 42.3297 28.0314C42.403 27.98 42.4633 27.9264 42.5107 27.8707C42.5582 27.8106 42.5992 27.7549 42.6336 27.7035C42.6595 27.6692 42.6811 27.6435 42.6984 27.6264C42.7157 27.6092 42.7415 27.6006 42.7759 27.6006C42.819 27.6006 42.8623 27.6135 42.9054 27.6391C42.9485 27.6649 42.97 27.7013 42.97 27.7485C42.97 27.8 42.9485 27.8557 42.9054 27.9158C42.8665 27.9757 42.8148 28.0422 42.7501 28.1151C42.6897 28.1837 42.6099 28.2501 42.5107 28.3145C42.4159 28.3744 42.3016 28.4259 42.1679 28.4688C42.0342 28.5116 41.879 28.5332 41.7022 28.5332C41.4478 28.5332 41.2235 28.4924 41.0296 28.4109C40.8398 28.3251 40.6803 28.2072 40.5508 28.0572C40.4214 27.9029 40.3223 27.7206 40.2533 27.5106C40.1886 27.3005 40.1562 27.0668 40.1562 26.8096C40.1562 26.5608 40.1908 26.3315 40.2598 26.1214C40.3331 25.907 40.4366 25.7249 40.5703 25.5748C40.7039 25.4248 40.8634 25.3069 41.0489 25.221C41.2387 25.1354 41.4499 25.0925 41.6828 25.0925C41.92 25.0925 42.1291 25.1354 42.3102 25.221C42.4914 25.3025 42.6423 25.4162 42.763 25.5619C42.8881 25.7035 42.9808 25.8727 43.0412 26.07C43.1058 26.2629 43.1383 26.4708 43.1383 26.6938Z" fill="white"/>
<path d="M44.6128 29.6585C44.5739 29.7529 44.5178 29.8001 44.4445 29.8001C44.3928 29.8001 44.3475 29.7851 44.3087 29.755C44.2742 29.725 44.257 29.6843 44.257 29.6329C44.257 29.5986 44.2721 29.545 44.3023 29.4721L44.7874 28.3917L43.5584 25.472C43.5497 25.4506 43.5412 25.4269 43.5325 25.4013C43.5239 25.3712 43.5195 25.3433 43.5195 25.3176C43.5195 25.2618 43.5433 25.2211 43.5907 25.1955C43.6424 25.1654 43.6985 25.1504 43.7589 25.1504C43.8149 25.1504 43.8624 25.1976 43.9011 25.2919L44.9944 27.9094L46.1393 25.2855C46.1737 25.1955 46.2212 25.1504 46.2816 25.1504C46.3376 25.1504 46.3893 25.1654 46.4368 25.1955C46.4843 25.2211 46.508 25.2576 46.508 25.3047C46.508 25.3219 46.5037 25.3454 46.4951 25.3755C46.4864 25.4013 46.4778 25.4269 46.4691 25.4527L44.6128 29.6585Z" fill="white"/>
</svg>
