<svg width="70" height="40" viewBox="0 0 70 40" fill="none" xmlns="http://www.w3.org/2000/svg">
<rect width="70" height="40" rx="2" fill="#FFCA06"/>
<g clip-path="url(#clip0_1378_1125)">
<path d="M60.4364 5.5H9.5V34.5H60.4364V5.5Z" fill="#FFCA06"/>
<path d="M13.5332 12.2733C13.5332 11.2611 14.3325 10.4406 15.3185 10.4406H31.0885C32.0744 10.4406 32.8738 11.2611 32.8738 12.2733V28.4624C32.8738 29.4745 32.0744 30.295 31.0885 30.295H15.3185C14.3325 30.295 13.5332 29.4745 13.5332 28.4624V12.2733Z" fill="black"/>
<path d="M12.9375 11.6827C12.9375 10.6705 13.7368 9.84998 14.7228 9.84998H30.4928C31.4787 9.84998 32.2781 10.6705 32.2781 11.6827V27.8717C32.2781 28.8838 31.4787 29.7044 30.4928 29.7044H14.7228C13.7368 29.7044 12.9375 28.8838 12.9375 27.8717V11.6827Z" fill="#015B80"/>
<path d="M12.9375 27.2609H32.2781V27.8717C32.2781 28.8838 31.4787 29.7044 30.4928 29.7044H14.7228C13.7368 29.7044 12.9375 28.8838 12.9375 27.8717V27.2609Z" fill="#FFCA06"/>
<path fill-rule="evenodd" clip-rule="evenodd" d="M16.8652 19.8892L20.6738 13.8616C20.6738 13.8616 22.7765 14.7067 24.8196 17.9955C26.8628 21.2844 26.2975 25.5197 26.2975 25.5197C24.9189 23.6463 23.0458 22.2596 21.4078 21.396C19.9399 20.6223 18.7398 20.2456 16.8652 19.8892ZM21.3879 19.9808C22.3411 19.9808 23.1137 19.1831 23.1137 18.199C23.1137 17.2149 22.3411 16.4172 21.3879 16.4172C20.4348 16.4172 19.6622 17.2149 19.6622 18.199C19.6622 19.1831 20.4348 19.9808 21.3879 19.9808Z" fill="#FFCA06"/>
<path d="M24.414 11.6216C24.414 11.6216 25.516 12.9452 26.3877 15.4296C27.2594 17.9139 26.9233 20.9481 26.9233 20.9481C26.9233 20.9481 26.4473 18.4841 25.0587 16.4477C23.6701 14.4114 22.8965 13.9838 22.8965 13.9838L24.414 11.6216Z" fill="#FFCA06"/>
<path d="M39.3377 15.1405H40.3057V20.5002H39.2584V16.8836L37.957 18.8467H37.3778L36.0051 16.8918V20.5002H35.0371V15.1405H36.0051L37.735 17.6086L39.3377 15.1405Z" fill="#004F70"/>
<path d="M43.3669 20.6467C42.7533 20.6467 42.2429 20.4567 41.8356 20.0766C41.4283 19.691 41.2246 19.2023 41.2246 18.6104C41.2246 18.0022 41.4336 17.4945 41.8515 17.0872C42.2747 16.6745 42.7983 16.4681 43.4225 16.4681C44.0308 16.4681 44.5386 16.6609 44.9459 17.0465C45.3585 17.4266 45.5649 17.9126 45.5649 18.5045C45.5649 19.1127 45.3533 19.6231 44.9301 20.0358C44.5069 20.4431 43.9859 20.6467 43.3669 20.6467ZM43.4225 19.8403C43.7504 19.8403 44.0123 19.7263 44.208 19.4982C44.4091 19.2702 44.5095 18.9688 44.5095 18.5941C44.5095 18.1923 44.4038 17.8719 44.1922 17.6329C43.9859 17.3886 43.7081 17.2664 43.359 17.2664C43.0364 17.2664 42.7745 17.3831 42.5735 17.6166C42.3725 17.8447 42.272 18.1461 42.272 18.5208C42.272 18.9226 42.3751 19.243 42.5814 19.4819C42.793 19.7209 43.0734 19.8403 43.4225 19.8403Z" fill="#004F70"/>
<path d="M50.7809 15.1405H51.7489V20.5002H50.7016V16.8836L49.4004 18.8467H48.8212L47.4485 16.8918V20.5002H46.4805V15.1405H47.4485L49.1782 17.6086L50.7809 15.1405Z" fill="#004F70"/>
<path d="M54.8122 20.6467C54.1986 20.6467 53.6882 20.4567 53.2808 20.0766C52.8735 19.691 52.6699 19.2023 52.6699 18.6104C52.6699 18.0022 52.8788 17.4945 53.2967 17.0872C53.7199 16.6745 54.2436 16.4681 54.8678 16.4681C55.4761 16.4681 55.9839 16.6609 56.3912 17.0465C56.8038 17.4266 57.0101 17.9126 57.0101 18.5045C57.0101 19.1127 56.7985 19.6231 56.3753 20.0358C55.9521 20.4431 55.4311 20.6467 54.8122 20.6467ZM54.8678 19.8403C55.1957 19.8403 55.4576 19.7263 55.6533 19.4982C55.8543 19.2702 55.9548 18.9688 55.9548 18.5941C55.9548 18.1923 55.849 17.8719 55.6374 17.6329C55.4311 17.3886 55.1535 17.2664 54.8043 17.2664C54.4816 17.2664 54.2197 17.3831 54.0187 17.6166C53.8177 17.8447 53.7173 18.1461 53.7173 18.5208C53.7173 18.9226 53.8204 19.243 54.0267 19.4819C54.2383 19.7209 54.5187 19.8403 54.8678 19.8403Z" fill="#004F70"/>
<path d="M35.6547 22.6064C35.57 22.6064 35.5083 22.6281 35.4693 22.6715C35.4321 22.715 35.4134 22.7836 35.4134 22.8775V22.94H35.8654V23.206H35.4134V24.186H35.0859V22.8878C35.0859 22.523 35.2611 22.3405 35.6116 22.3405C35.7385 22.3405 35.8595 22.3613 35.9746 22.4031V22.6741C35.868 22.629 35.7613 22.6064 35.6547 22.6064Z" fill="#004F70"/>
<path d="M36.8279 22.9061C36.8771 22.9061 36.9243 22.9122 36.97 22.9244V23.2528C36.921 23.2337 36.8643 23.2241 36.8 23.2241C36.6307 23.2241 36.5012 23.3137 36.4115 23.4926V24.186H36.084V22.9713L36.4013 22.9009V23.2136C36.4539 23.1146 36.5173 23.0391 36.5918 22.987C36.6679 22.9331 36.7467 22.9061 36.8279 22.9061Z" fill="#004F70"/>
<path d="M37.7617 24.2328C37.5653 24.2328 37.4019 24.1721 37.2716 24.0504C37.1412 23.927 37.0762 23.7706 37.0762 23.5812C37.0762 23.3866 37.1429 23.2241 37.2767 23.0938C37.4121 22.9617 37.5797 22.8956 37.7794 22.8956C37.9741 22.8956 38.1366 22.9574 38.2669 23.0808C38.399 23.2024 38.4649 23.3579 38.4649 23.5473C38.4649 23.742 38.3973 23.9053 38.2618 24.0374C38.1264 24.1677 37.9596 24.2328 37.7617 24.2328ZM37.7794 23.9747C37.8844 23.9747 37.9681 23.9383 38.0308 23.8652C38.0952 23.7923 38.1273 23.6959 38.1273 23.576C38.1273 23.4474 38.0935 23.3448 38.0257 23.2684C37.9596 23.1903 37.8708 23.1511 37.7591 23.1511C37.6558 23.1511 37.5721 23.1885 37.5078 23.2632C37.4435 23.3361 37.4113 23.4326 37.4113 23.5525C37.4113 23.6811 37.4442 23.7836 37.5102 23.8602C37.578 23.9366 37.6677 23.9747 37.7794 23.9747Z" fill="#004F70"/>
<path d="M40.2688 22.9113C40.3924 22.9113 40.4914 22.9566 40.5659 23.0469C40.6404 23.1372 40.6775 23.2658 40.6775 23.4326V24.186H40.35V23.5135C40.35 23.3015 40.2831 23.1955 40.1495 23.1955C40.036 23.1955 39.9429 23.258 39.8701 23.3831C39.8718 23.3936 39.8727 23.4101 39.8727 23.4326V24.186H39.5452V23.5135C39.5452 23.3015 39.4783 23.1955 39.3446 23.1955C39.2312 23.1955 39.1389 23.2571 39.0679 23.3805V24.186H38.7402V22.9713L39.0577 22.9009V23.1224C39.166 22.9818 39.2989 22.9113 39.4562 22.9113C39.5392 22.9113 39.6128 22.9331 39.6771 22.9766C39.7415 23.0199 39.7906 23.0826 39.8244 23.1642C39.877 23.086 39.9422 23.0243 40.02 22.9792C40.0979 22.9339 40.1808 22.9113 40.2688 22.9113Z" fill="#004F70"/>
<path d="M43.0988 22.4708H43.4087V24.186H43.0734V23.0286L42.6571 23.6568H42.4718L42.0324 23.0312V24.186H41.7227V22.4708H42.0324L42.5859 23.2606L43.0988 22.4708Z" fill="#004F70"/>
<path d="M44.2649 22.7602H43.6836V22.4708H45.1867V22.7602H44.6052V24.186H44.2649V22.7602Z" fill="#004F70"/>
<path d="M46.6709 22.4708H46.9807V24.186H46.6963L45.7747 23.013V24.186H45.4648V22.4708H45.7721L46.6709 23.6178V22.4708Z" fill="#004F70"/>
</g>
<defs>
<clipPath id="clip0_1378_1125">
<rect width="51" height="29" fill="white" transform="translate(9.5 5.5)"/>
</clipPath>
</defs>
</svg>
